<?xml version="1.0" standalone="no"?><!DOCTYPE svg PUBLIC "-//W3C//DTD SVG 1.1//EN" "http://www.w3.org/Graphics/SVG/1.1/DTD/svg11.dtd"><svg t="1708526883848" class="icon" viewBox="0 0 1024 1024" version="1.1" xmlns="http://www.w3.org/2000/svg" p-id="5610" xmlns:xlink="http://www.w3.org/1999/xlink" width="32" height="32"><path d="M511.837 704c-184.451 0-288.003-191.997-288.003-191.997S329.357 320 511.837 320c182.474 0 287.997 192.003 287.997 192.003S696.285 704 511.837 704zM511.833 384c-131.99 0-208.32 128.003-208.32 128.003S378.416 640 511.833 640s208.32-127.997 208.32-127.997S643.824 384 511.833 384zM511.833 576c-35.347 0-64-28.656-64-64.003 0-35.344 28.653-64 64-64s64 28.656 64 64C575.833 547.344 547.181 576 511.833 576z" p-id="5611" fill="#cccccc"></path></svg>